<mxfile host="app.diagrams.net" modified="2024-03-25T08:54:07.784Z" agent="Mozilla/5.0 (Windows NT 10.0; Win64; x64) AppleWebKit/537.36 (KHTML, like Gecko) Chrome/122.0.0.0 Safari/537.36 Edg/122.0.0.0" etag="lnfC9d52pd0ixf73C7uJ" version="24.0.5" type="github">
  <diagram name="第 1 页" id="poJjW6iL6-pQok1NCBwL">
    <mxGraphModel dx="1426" dy="759" grid="1" gridSize="10" guides="1" tooltips="1" connect="1" arrows="1" fold="1" page="1" pageScale="1" pageWidth="827" pageHeight="1169" math="0" shadow="0">
      <root>
        <mxCell id="0" />
        <mxCell id="1" parent="0" />
        <mxCell id="oCAVf-H_5PdM53IzYRjs-3" value="" style="edgeStyle=orthogonalEdgeStyle;rounded=0;orthogonalLoop=1;jettySize=auto;html=1;" parent="1" source="oCAVf-H_5PdM53IzYRjs-1" target="oCAVf-H_5PdM53IzYRjs-2" edge="1">
          <mxGeometry relative="1" as="geometry" />
        </mxCell>
        <mxCell id="oCAVf-H_5PdM53IzYRjs-6" value="是" style="edgeLabel;html=1;align=center;verticalAlign=middle;resizable=0;points=[];" parent="oCAVf-H_5PdM53IzYRjs-3" vertex="1" connectable="0">
          <mxGeometry x="-0.2" relative="1" as="geometry">
            <mxPoint as="offset" />
          </mxGeometry>
        </mxCell>
        <mxCell id="oCAVf-H_5PdM53IzYRjs-35" style="edgeStyle=orthogonalEdgeStyle;rounded=0;orthogonalLoop=1;jettySize=auto;html=1;" parent="1" source="oCAVf-H_5PdM53IzYRjs-1" edge="1">
          <mxGeometry relative="1" as="geometry">
            <mxPoint x="120" y="360" as="targetPoint" />
          </mxGeometry>
        </mxCell>
        <mxCell id="oCAVf-H_5PdM53IzYRjs-39" value="否" style="edgeLabel;html=1;align=center;verticalAlign=middle;resizable=0;points=[];" parent="oCAVf-H_5PdM53IzYRjs-35" vertex="1" connectable="0">
          <mxGeometry x="-0.376" y="-1" relative="1" as="geometry">
            <mxPoint as="offset" />
          </mxGeometry>
        </mxCell>
        <mxCell id="oCAVf-H_5PdM53IzYRjs-1" value="车厢数 &amp;lt; 12" style="rhombus;whiteSpace=wrap;html=1;" parent="1" vertex="1">
          <mxGeometry x="351" y="230" width="80" height="80" as="geometry" />
        </mxCell>
        <mxCell id="oCAVf-H_5PdM53IzYRjs-34" value="" style="edgeStyle=orthogonalEdgeStyle;rounded=0;orthogonalLoop=1;jettySize=auto;html=1;" parent="1" source="oCAVf-H_5PdM53IzYRjs-2" target="oCAVf-H_5PdM53IzYRjs-4" edge="1">
          <mxGeometry relative="1" as="geometry" />
        </mxCell>
        <mxCell id="oCAVf-H_5PdM53IzYRjs-2" value="读取光电传感器数据" style="rounded=0;whiteSpace=wrap;html=1;" parent="1" vertex="1">
          <mxGeometry x="331" y="360" width="120" height="60" as="geometry" />
        </mxCell>
        <mxCell id="oCAVf-H_5PdM53IzYRjs-9" value="" style="edgeStyle=orthogonalEdgeStyle;rounded=0;orthogonalLoop=1;jettySize=auto;html=1;" parent="1" source="oCAVf-H_5PdM53IzYRjs-4" target="oCAVf-H_5PdM53IzYRjs-8" edge="1">
          <mxGeometry relative="1" as="geometry" />
        </mxCell>
        <mxCell id="oCAVf-H_5PdM53IzYRjs-33" value="是" style="edgeLabel;html=1;align=center;verticalAlign=middle;resizable=0;points=[];" parent="oCAVf-H_5PdM53IzYRjs-9" vertex="1" connectable="0">
          <mxGeometry x="-0.4754" y="4" relative="1" as="geometry">
            <mxPoint x="1" y="2" as="offset" />
          </mxGeometry>
        </mxCell>
        <mxCell id="oCAVf-H_5PdM53IzYRjs-4" value="0-&amp;gt;1&lt;div&gt;有遮挡到无遮挡&lt;br&gt;&lt;/div&gt;&lt;div&gt;检测到一节车厢&lt;br&gt;&lt;/div&gt;" style="rhombus;whiteSpace=wrap;html=1;" parent="1" vertex="1">
          <mxGeometry x="310" y="470" width="161" height="90" as="geometry" />
        </mxCell>
        <mxCell id="oCAVf-H_5PdM53IzYRjs-14" value="" style="edgeStyle=orthogonalEdgeStyle;rounded=0;orthogonalLoop=1;jettySize=auto;html=1;" parent="1" source="oCAVf-H_5PdM53IzYRjs-8" target="oCAVf-H_5PdM53IzYRjs-13" edge="1">
          <mxGeometry relative="1" as="geometry" />
        </mxCell>
        <mxCell id="oCAVf-H_5PdM53IzYRjs-8" value="车箱数加一" style="rounded=0;whiteSpace=wrap;html=1;" parent="1" vertex="1">
          <mxGeometry x="330.5" y="620" width="120" height="60" as="geometry" />
        </mxCell>
        <mxCell id="oCAVf-H_5PdM53IzYRjs-17" value="" style="edgeStyle=orthogonalEdgeStyle;rounded=0;orthogonalLoop=1;jettySize=auto;html=1;" parent="1" source="oCAVf-H_5PdM53IzYRjs-12" target="oCAVf-H_5PdM53IzYRjs-16" edge="1">
          <mxGeometry relative="1" as="geometry" />
        </mxCell>
        <mxCell id="oCAVf-H_5PdM53IzYRjs-18" value="是" style="edgeLabel;html=1;align=center;verticalAlign=middle;resizable=0;points=[];" parent="oCAVf-H_5PdM53IzYRjs-17" vertex="1" connectable="0">
          <mxGeometry x="-0.3333" y="-3" relative="1" as="geometry">
            <mxPoint as="offset" />
          </mxGeometry>
        </mxCell>
        <mxCell id="oCAVf-H_5PdM53IzYRjs-19" style="edgeStyle=orthogonalEdgeStyle;rounded=0;orthogonalLoop=1;jettySize=auto;html=1;entryX=0.5;entryY=1;entryDx=0;entryDy=0;" parent="1" source="oCAVf-H_5PdM53IzYRjs-12" target="oCAVf-H_5PdM53IzYRjs-40" edge="1">
          <mxGeometry relative="1" as="geometry">
            <mxPoint x="577" y="810" as="targetPoint" />
          </mxGeometry>
        </mxCell>
        <mxCell id="oCAVf-H_5PdM53IzYRjs-12" value="1-&amp;gt;0&lt;div&gt;无遮挡到遮挡&lt;br&gt;&lt;/div&gt;&lt;div&gt;判断车厢是否到位&lt;br&gt;&lt;/div&gt;" style="rhombus;whiteSpace=wrap;html=1;" parent="1" vertex="1">
          <mxGeometry x="310" y="840" width="161" height="90" as="geometry" />
        </mxCell>
        <mxCell id="oCAVf-H_5PdM53IzYRjs-15" value="" style="edgeStyle=orthogonalEdgeStyle;rounded=0;orthogonalLoop=1;jettySize=auto;html=1;" parent="1" source="oCAVf-H_5PdM53IzYRjs-13" target="oCAVf-H_5PdM53IzYRjs-12" edge="1">
          <mxGeometry relative="1" as="geometry" />
        </mxCell>
        <mxCell id="oCAVf-H_5PdM53IzYRjs-13" value="读取光电传感器数据" style="rounded=0;whiteSpace=wrap;html=1;" parent="1" vertex="1">
          <mxGeometry x="330.5" y="730" width="120" height="60" as="geometry" />
        </mxCell>
        <mxCell id="oCAVf-H_5PdM53IzYRjs-31" style="edgeStyle=orthogonalEdgeStyle;rounded=0;orthogonalLoop=1;jettySize=auto;html=1;" parent="1" source="oCAVf-H_5PdM53IzYRjs-16" edge="1">
          <mxGeometry relative="1" as="geometry">
            <mxPoint x="760" y="210" as="targetPoint" />
          </mxGeometry>
        </mxCell>
        <mxCell id="oCAVf-H_5PdM53IzYRjs-16" value="发送车厢到位信号" style="rounded=0;whiteSpace=wrap;html=1;" parent="1" vertex="1">
          <mxGeometry x="330.5" y="990" width="120" height="60" as="geometry" />
        </mxCell>
        <mxCell id="oCAVf-H_5PdM53IzYRjs-20" value="" style="endArrow=classic;html=1;rounded=0;" parent="1" edge="1">
          <mxGeometry width="50" height="50" relative="1" as="geometry">
            <mxPoint x="600" y="700" as="sourcePoint" />
            <mxPoint x="396.5" y="700" as="targetPoint" />
            <Array as="points">
              <mxPoint x="500.5" y="700" />
            </Array>
          </mxGeometry>
        </mxCell>
        <mxCell id="oCAVf-H_5PdM53IzYRjs-21" value="否" style="text;html=1;align=center;verticalAlign=middle;resizable=0;points=[];autosize=1;strokeColor=none;fillColor=none;" parent="1" vertex="1">
          <mxGeometry x="476.5" y="868" width="40" height="30" as="geometry" />
        </mxCell>
        <mxCell id="oCAVf-H_5PdM53IzYRjs-24" value="" style="edgeStyle=orthogonalEdgeStyle;rounded=0;orthogonalLoop=1;jettySize=auto;html=1;" parent="1" source="oCAVf-H_5PdM53IzYRjs-23" target="oCAVf-H_5PdM53IzYRjs-1" edge="1">
          <mxGeometry relative="1" as="geometry" />
        </mxCell>
        <mxCell id="oCAVf-H_5PdM53IzYRjs-23" value="开始" style="rounded=1;whiteSpace=wrap;html=1;" parent="1" vertex="1">
          <mxGeometry x="330.5" y="120" width="120" height="60" as="geometry" />
        </mxCell>
        <mxCell id="oCAVf-H_5PdM53IzYRjs-25" value="" style="endArrow=classic;html=1;rounded=0;" parent="1" edge="1">
          <mxGeometry width="50" height="50" relative="1" as="geometry">
            <mxPoint x="600" y="210" as="sourcePoint" />
            <mxPoint x="400" y="210" as="targetPoint" />
          </mxGeometry>
        </mxCell>
        <mxCell id="oCAVf-H_5PdM53IzYRjs-28" style="edgeStyle=orthogonalEdgeStyle;rounded=0;orthogonalLoop=1;jettySize=auto;html=1;" parent="1" source="oCAVf-H_5PdM53IzYRjs-27" edge="1">
          <mxGeometry relative="1" as="geometry">
            <mxPoint x="600" y="210" as="targetPoint" />
          </mxGeometry>
        </mxCell>
        <mxCell id="oCAVf-H_5PdM53IzYRjs-29" value="" style="edgeStyle=orthogonalEdgeStyle;rounded=0;orthogonalLoop=1;jettySize=auto;html=1;exitX=1;exitY=0.5;exitDx=0;exitDy=0;" parent="1" source="oCAVf-H_5PdM53IzYRjs-4" target="oCAVf-H_5PdM53IzYRjs-27" edge="1">
          <mxGeometry relative="1" as="geometry">
            <mxPoint x="600" y="390" as="targetPoint" />
            <mxPoint x="471" y="515" as="sourcePoint" />
            <Array as="points" />
          </mxGeometry>
        </mxCell>
        <mxCell id="oCAVf-H_5PdM53IzYRjs-30" value="否" style="edgeLabel;html=1;align=center;verticalAlign=middle;resizable=0;points=[];" parent="oCAVf-H_5PdM53IzYRjs-29" vertex="1" connectable="0">
          <mxGeometry x="-0.7057" y="1" relative="1" as="geometry">
            <mxPoint as="offset" />
          </mxGeometry>
        </mxCell>
        <mxCell id="oCAVf-H_5PdM53IzYRjs-27" value="等待300ms" style="rounded=0;whiteSpace=wrap;html=1;" parent="1" vertex="1">
          <mxGeometry x="540" y="360" width="120" height="60" as="geometry" />
        </mxCell>
        <mxCell id="oCAVf-H_5PdM53IzYRjs-32" value="" style="endArrow=classic;html=1;rounded=0;" parent="1" edge="1">
          <mxGeometry width="50" height="50" relative="1" as="geometry">
            <mxPoint x="760" y="210" as="sourcePoint" />
            <mxPoint x="600" y="210" as="targetPoint" />
          </mxGeometry>
        </mxCell>
        <mxCell id="oCAVf-H_5PdM53IzYRjs-38" value="结束" style="rounded=1;whiteSpace=wrap;html=1;" parent="1" vertex="1">
          <mxGeometry x="60" y="360" width="120" height="60" as="geometry" />
        </mxCell>
        <mxCell id="oCAVf-H_5PdM53IzYRjs-42" style="edgeStyle=orthogonalEdgeStyle;rounded=0;orthogonalLoop=1;jettySize=auto;html=1;" parent="1" source="oCAVf-H_5PdM53IzYRjs-40" edge="1">
          <mxGeometry relative="1" as="geometry">
            <mxPoint x="600" y="700" as="targetPoint" />
          </mxGeometry>
        </mxCell>
        <mxCell id="oCAVf-H_5PdM53IzYRjs-40" value="等待30ms" style="rounded=0;whiteSpace=wrap;html=1;" parent="1" vertex="1">
          <mxGeometry x="540" y="730" width="120" height="60" as="geometry" />
        </mxCell>
        <mxCell id="oCAVf-H_5PdM53IzYRjs-43" value="&lt;b&gt;&lt;font style=&quot;font-size: 15px;&quot;&gt;现在问题是最后一节车厢到位该如何判断&lt;/font&gt;&lt;/b&gt;" style="text;html=1;align=center;verticalAlign=middle;whiteSpace=wrap;rounded=0;" parent="1" vertex="1">
          <mxGeometry x="20" y="845" width="280" height="80" as="geometry" />
        </mxCell>
      </root>
    </mxGraphModel>
  </diagram>
</mxfile>
